<svg width="1512" height="155" viewBox="0 0 1512 155" fill="none" xmlns="http://www.w3.org/2000/svg">
<path d="M0 21.3523L22.89 25.0415C45.78 29.0092 91.35 35.97 137.55 47.3162C183.225 58.2446 228.9 73.5584 275.1 73.3496C320.775 73.5584 366.45 58.2446 412.65 51.075C458.22 43.6269 504 43.6269 550.2 62.2123C595.665 80.5192 641.55 118.108 687.75 114.14C733.11 110.451 779.1 65.9015 824.25 58.4535C870.555 51.2838 916.65 80.5192 961.8 80.7281C1008 80.5192 1054.2 51.2838 1099.35 32.4896C1145.45 13.6954 1191.75 6.73459 1236.9 2.76692C1282.89 -0.922308 1328.25 -0.922308 1374.45 2.76692C1420.34 6.73459 1465.8 13.6954 1488.9 17.6631L1512 21.3523V155H1489.11C1466.22 155 1420.65 155 1374.45 155C1328.78 155 1283.1 155 1236.9 155C1191.23 155 1145.55 155 1099.35 155C1053.78 155 1008 155 961.8 155C916.335 155 870.45 155 824.25 155C778.89 155 732.9 155 687.75 155C641.445 155 595.35 155 550.2 155C504 155 457.8 155 412.65 155C366.555 155 320.25 155 275.1 155C229.11 155 183.75 155 137.55 155C91.665 155 46.2 155 23.1 155H0V21.3523Z" fill="#54B4D3"/>
</svg>
